<?xml version="1.0" encoding="UTF-8" standalone="no"?>
<svg width="15px" height="15px" viewBox="0 0 15 15" version="1.1" xmlns="http://www.w3.org/2000/svg" xmlns:xlink="http://www.w3.org/1999/xlink">
    <!-- Generator: Sketch 46.2 (44496) - http://www.bohemiancoding.com/sketch -->
    <title>close icon</title>
    <desc>Created with Sketch.</desc>
    <defs></defs>
    <g id="Design" stroke="none" stroke-width="1" fill="none" fill-rule="evenodd">
        <g id="style-tile" transform="translate(-644.000000, -2730.000000)" fill="#FFFFFF">
            <g id="Icons" transform="translate(127.000000, 2576.000000)">
                <path d="M530.569883,168.971133 C530.192244,168.971133 529.830074,168.821293 529.56306,168.554582 L524.508734,163.506623 L519.454408,168.554582 C519.099246,168.930675 518.56739,169.084093 518.066146,168.955039 C517.564902,168.825984 517.173597,168.434881 517.044754,167.934173 C516.91591,167.433464 517.069919,166.902393 517.446751,166.547959 L522.501076,161.5 L517.446751,156.452041 C517.069919,156.097607 516.91591,155.566536 517.044754,155.065827 C517.173597,154.565119 517.564902,154.174016 518.066146,154.044961 C518.56739,153.915907 519.099246,154.069325 519.454408,154.445418 L524.508734,159.493377 L529.56306,154.445418 C529.920555,154.080069 530.447086,153.934834 530.941649,154.065159 C531.436212,154.195483 531.822464,154.581249 531.952953,155.075189 C532.083442,155.569129 531.938024,156.094996 531.572214,156.452041 L526.517888,161.5 L531.572214,166.547959 C532.127393,167.101197 532.129402,167.99887 531.576705,168.554582 C531.309691,168.821293 530.947522,168.971133 530.569883,168.971133 Z" id="close-icon"></path>
            </g>
        </g>
    </g>
</svg>