<svg xmlns="http://www.w3.org/2000/svg" viewBox="0 0 914.64 122.076"><defs><style>.cls-1{fill:none;stroke:#4a9eb0;stroke-linejoin:round;stroke-width:2.04px;}.cls-2,.cls-3,.cls-4,.cls-5,.cls-6{fill:#4a9eb0;}.cls-3{font-size:51.96px;}.cls-3,.cls-4,.cls-5,.cls-6{font-family:PalatinoLinotype-Roman, Palatino Linotype;}.cls-4,.cls-5{font-size:14.04px;}.cls-5{letter-spacing:-0.003em;}.cls-6{font-size:14.064px;}</style></defs><title>Asset 1</title><g id="Layer_2" data-name="Layer 2"><g id="Layer_1-2" data-name="Layer 1"><path class="cls-1" d="M17.7,68.9l50.889-.03c8.013-.11,18.947-.14,24.221.05s5.14,1.58,7.45,1.09,4.01-4.74,6.39-4,5.31,9.73,7.9,8.46,5.11-18.13,7.64-16.09,4.82,30.96,7.54,28.32,6.17-46.61,8.79-44.14,4.36,60.31,6.9,58.96,5.66-66.93,8.34-67.06,5.11,64.78,7.75,66.28,5.36-54.76,8.08-57.27,5.74,39.41,8.26,42.18,4.17-23.56,6.81-25.57,6.38,12.39,9.08,13.48,4.46-6.28,7.11-6.95,4.43,2.57,8.78,2.9.64-.77,17.31-.9l82.68.1,83.71.35,502.65-.05"/><ellipse class="cls-2" cx="896.1" cy="68.957" rx="3.42" ry="3.48"/><ellipse class="cls-2" cx="18.9" cy="68.657" rx="3.42" ry="3.54"/><ellipse class="cls-2" cx="9.78" cy="68.657" rx="2.58" ry="2.46"/><ellipse class="cls-2" cx="1.74" cy="68.657" rx="1.74" ry="1.86"/><circle class="cls-2" cx="904.44" cy="68.957" r="2.52"/><ellipse class="cls-2" cx="912.96" cy="69.017" rx="1.68" ry="1.86"/><text class="cls-3" transform="translate(197.62 44.577)">QSD</text><text class="cls-4" transform="translate(211.54 90.127)">Quantum</text><text class="cls-5" transform="translate(225.58 107.047)">Systems &amp; Devices</text><text class="cls-6" transform="translate(697.42 89.167)">Quantum Hub Showcase 2017</text></g></g></svg>