<?xml version="1.0" encoding="UTF-8" standalone="no"?>
<svg
   xmlns:dc="http://purl.org/dc/elements/1.1/"
   xmlns:cc="http://creativecommons.org/ns#"
   xmlns:rdf="http://www.w3.org/1999/02/22-rdf-syntax-ns#"
   xmlns:svg="http://www.w3.org/2000/svg"
   xmlns="http://www.w3.org/2000/svg"
   xmlns:sodipodi="http://sodipodi.sourceforge.net/DTD/sodipodi-0.dtd"
   xmlns:inkscape="http://www.inkscape.org/namespaces/inkscape"
   viewBox="0 0 914.64 122.076"
   id="svg2"
   version="1.1"
   inkscape:version="0.48.2 r9819"
   width="100%"
   height="100%"
   sodipodi:docname="title.svg">
  <metadata
     id="metadata36">
    <rdf:RDF>
      <cc:Work
         rdf:about="">
        <dc:format>image/svg+xml</dc:format>
        <dc:type
           rdf:resource="http://purl.org/dc/dcmitype/StillImage" />
      </cc:Work>
    </rdf:RDF>
  </metadata>
  <sodipodi:namedview
     pagecolor="#ffffff"
     bordercolor="#666666"
     borderopacity="1"
     objecttolerance="10"
     gridtolerance="10"
     guidetolerance="10"
     inkscape:pageopacity="0"
     inkscape:pageshadow="2"
     inkscape:window-width="1920"
     inkscape:window-height="1018"
     id="namedview34"
     showgrid="false"
     inkscape:zoom="1.2770052"
     inkscape:cx="353.96528"
     inkscape:cy="-83.749238"
     inkscape:window-x="-8"
     inkscape:window-y="-8"
     inkscape:window-maximized="1"
     inkscape:current-layer="svg2" />
  <defs
     id="defs4"><style
   id="style6">.cls-1{fill:none;stroke:#4a9eb0;stroke-linejoin:round;stroke-width:2.04px;}.cls-2,.cls-3,.cls-4,.cls-5,.cls-6{fill:#4a9eb0;}.cls-3{font-size:51.96px;}.cls-3,.cls-4,.cls-5,.cls-6{font-family:PalatinoLinotype-Roman, Palatino Linotype;}.cls-4,.cls-5{font-size:14.04px;}.cls-5{letter-spacing:-0.003em;}.cls-6{font-size:14.064px;}</style>

	
	
	
	
	
	
	
	
	
	
	
	
	
	
	
	
	
	
	
	
	
	
</defs>
  <title
     id="title8">Asset 1</title>
  <path
     class="cls-1"
     d="m 17.7,68.9 50.889,-0.03 c 8.013,-0.11 18.947,-0.14 24.221,0.05 5.274,0.19 5.14,1.58 7.45,1.09 2.31,-0.49 4.01,-4.74 6.39,-4 2.38,0.74 5.31,9.73 7.9,8.46 2.59,-1.27 5.11,-18.13 7.64,-16.09 2.53,2.04 4.82,30.96 7.54,28.32 2.72,-2.64 6.17,-46.61 8.79,-44.14 2.62,2.47 4.36,60.31 6.9,58.96 2.54,-1.35 5.66,-66.93 8.34,-67.06 2.68,-0.13 5.11,64.78 7.75,66.28 2.64,1.5 5.36,-54.76 8.08,-57.27 2.72,-2.51 5.74,39.41 8.26,42.18 2.52,2.77 4.17,-23.56 6.81,-25.57 2.64,-2.01 6.38,12.39 9.08,13.48 2.7,1.09 4.46,-6.28 7.11,-6.95 2.65,-0.67 4.43,2.57 8.78,2.9 4.35,0.33 0.64,-0.77 17.31,-0.9 l 82.68,0.1 83.71,0.35 502.65,-0.05"
     id="path12"
     inkscape:connector-curvature="0"
     style="fill:none;stroke:#4a9eb0;stroke-width:2.03999996px;stroke-linejoin:round" />
  <ellipse
     class="cls-2"
     cx="896.09998"
     cy="68.957001"
     rx="3.4200001"
     ry="3.48"
     id="ellipse14"
     sodipodi:cx="896.09998"
     sodipodi:cy="68.957001"
     sodipodi:rx="3.4200001"
     sodipodi:ry="3.48"
     style="fill:#4a9eb0" />
  <ellipse
     class="cls-2"
     cx="18.9"
     cy="68.656998"
     rx="3.4200001"
     ry="3.54"
     id="ellipse16"
     sodipodi:cx="18.9"
     sodipodi:cy="68.656998"
     sodipodi:rx="3.4200001"
     sodipodi:ry="3.54"
     style="fill:#4a9eb0" />
  <ellipse
     class="cls-2"
     cx="9.7799997"
     cy="68.656998"
     rx="2.5799999"
     ry="2.46"
     id="ellipse18"
     sodipodi:cx="9.7799997"
     sodipodi:cy="68.656998"
     sodipodi:rx="2.5799999"
     sodipodi:ry="2.46"
     style="fill:#4a9eb0" />
  <ellipse
     class="cls-2"
     cx="1.74"
     cy="68.656998"
     rx="1.74"
     ry="1.86"
     id="ellipse20"
     sodipodi:cx="1.74"
     sodipodi:cy="68.656998"
     sodipodi:rx="1.74"
     sodipodi:ry="1.86"
     style="fill:#4a9eb0" />
  <circle
     class="cls-2"
     cx="904.44"
     cy="68.957001"
     r="2.52"
     id="circle22"
     sodipodi:cx="904.44"
     sodipodi:cy="68.957001"
     sodipodi:rx="2.52"
     sodipodi:ry="2.52"
     style="fill:#4a9eb0" />
  <ellipse
     class="cls-2"
     cx="912.96002"
     cy="69.016998"
     rx="1.6799999"
     ry="1.86"
     id="ellipse24"
     sodipodi:cx="912.96002"
     sodipodi:cy="69.016998"
     sodipodi:rx="1.6799999"
     sodipodi:ry="1.86"
     style="fill:#4a9eb0" />
  <text
     class="cls-6"
     id="text32"
     style="font-size:14.06400013px;fill:#4a9eb0;font-family:'PalatinoLinotype-Roman, Palatino Linotype'"
     x="361.02557"
     y="38.778229">Quantum Hub Showcase 2018</text>
  <path
     style="fill:#4a9eb0;fill-opacity:1"
     id="path3039"
     d="m 288.3107,24.832439 c -0.61823,0.48943 -1.41678,0.747025 -2.31836,0.747025 -2.47291,0 -3.91544,-1.906202 -3.91544,-4.301834 0,-2.395632 1.44253,-4.301834 3.91544,-4.301834 2.44715,0 3.91544,1.906202 3.91544,4.301834 0,1.339493 -0.43791,2.49867 -1.23645,3.245695 l 1.28797,0.927341 -0.25759,0.360633 -1.39101,-0.97886 z m -0.0515,-0.592469 c 0.74702,-0.721265 1.13341,-1.803163 1.13341,-2.96234 0,-2.112278 -1.26221,-3.863923 -3.40025,-3.863923 -2.16379,0 -3.40025,1.751645 -3.40025,3.863923 0,2.112277 1.26221,3.863922 3.40025,3.863922 0.77279,0 1.41677,-0.206076 1.93196,-0.618227 l -1.23645,-0.875823 0.25759,-0.360632 1.31374,0.9531 z"
     inkscape:connector-curvature="0" />
  <path
     style="fill:#4a9eb0;fill-opacity:1"
     id="path3041"
     d="m 295.57487,25.399147 h -0.43791 v -1.262215 h -0.0258 c -0.30911,0.875823 -1.18494,1.416772 -2.11228,1.416772 -2.08652,0 -2.11228,-1.674366 -2.11228,-2.395632 v -3.683606 h 0.43791 v 3.735125 c 0,0.618228 0.0773,1.931961 1.67437,1.931961 1.31373,0 2.13804,-1.030379 2.13804,-2.47291 v -3.194176 h 0.43791 v 5.924681 z"
     inkscape:connector-curvature="0" />
  <path
     style="fill:#4a9eb0;fill-opacity:1"
     id="path3043"
     d="m 301.2162,24.291489 c 0,0.334874 0,0.721266 0.38639,0.721266 0.0773,0 0.18031,0 0.33487,-0.02576 v 0.360633 c -0.1288,0.02576 -0.23183,0.05152 -0.36063,0.05152 -0.69551,0 -0.79854,-0.386392 -0.79854,-0.875822 v -0.309114 h -0.0258 c -0.28336,0.695506 -1.0819,1.313734 -2.18956,1.313734 -1.10766,0 -1.98348,-0.437912 -1.98348,-1.674367 0,-1.391012 1.18494,-1.674366 2.1638,-1.751645 1.95772,-0.128797 2.035,-0.257594 2.035,-1.236455 0,-0.257595 -0.30912,-1.159177 -1.64861,-1.159177 -1.05614,0 -1.75165,0.54095 -1.82893,1.571329 h -0.43791 c 0.0515,-1.313734 0.87583,-1.957721 2.26684,-1.957721 1.03038,0 2.06076,0.334873 2.06076,1.545569 v 3.426011 z m -0.43791,-2.266834 c -0.33488,0.386392 -1.28798,0.334873 -2.13804,0.463671 -1.03038,0.103038 -1.62285,0.48943 -1.62285,1.365252 0,0.721266 0.51519,1.287974 1.54557,1.287974 1.98348,0 2.21532,-1.700126 2.21532,-2.009239 v -1.107658 z"
     inkscape:connector-curvature="0" />
  <path
     style="fill:#4a9eb0;fill-opacity:1"
     id="path3045"
     d="m 302.60721,19.474466 h 0.43791 v 1.262215 h 0.0258 c 0.30911,-0.875823 1.18494,-1.416772 2.11228,-1.416772 2.08651,0 2.11227,1.674367 2.11227,2.395632 v 3.657847 h -0.43791 v -3.735125 c 0,-0.618228 -0.0773,-1.931962 -1.67436,-1.931962 -1.31374,0 -2.13804,1.03038 -2.13804,2.472911 v 3.194176 h -0.43791 v -5.898922 z"
     inkscape:connector-curvature="0" />
  <path
     style="fill:#4a9eb0;fill-opacity:1"
     id="path3047"
     d="m 310.77296,19.860858 h -1.28797 v 4.121518 c 0,0.9531 0.43791,1.056138 1.28797,1.030379 v 0.386392 c -0.90158,0.05152 -1.75164,-0.07728 -1.72588,-1.416771 v -4.121518 h -1.0819 v -0.386392 h 1.0819 v -1.854683 h 0.43791 v 1.854683 h 1.28797 v 0.386392 z"
     inkscape:connector-curvature="0" />
  <path
     style="fill:#4a9eb0;fill-opacity:1"
     id="path3049"
     d="m 316.25973,25.399147 h -0.43791 v -1.262215 h -0.0258 c -0.30911,0.875823 -1.18493,1.416772 -2.11227,1.416772 -2.08652,0 -2.11228,-1.674366 -2.11228,-2.395632 v -3.683606 h 0.43791 v 3.735125 c 0,0.618228 0.0773,1.931961 1.67437,1.931961 1.31373,0 2.13803,-1.030379 2.13803,-2.47291 v -3.194176 h 0.43791 v 5.924681 z"
     inkscape:connector-curvature="0" />
  <path
     style="fill:#4a9eb0;fill-opacity:1"
     id="path3051"
     d="m 317.57347,19.474466 h 0.43791 v 1.210696 h 0.0258 c 0.18032,-0.747025 0.97886,-1.339493 1.85468,-1.339493 1.13342,0 1.64861,0.643987 1.77741,1.262214 h 0.0258 c 0.33487,-0.798544 0.92734,-1.262214 1.88044,-1.262214 1.0819,0 1.85468,0.618227 1.85468,2.009239 v 4.044239 h -0.43791 v -4.069998 c 0,-1.51981 -1.0819,-1.622848 -1.41677,-1.622848 -1.0819,0 -1.85469,0.747025 -1.85469,2.163797 v 3.50329 h -0.43791 v -4.044239 c 0,-1.49405 -1.00462,-1.622848 -1.39101,-1.622848 -0.85006,0 -1.88044,0.643987 -1.88044,2.163797 v 3.50329 h -0.43791 v -5.898922 z"
     inkscape:connector-curvature="0" />
  <path
     style="fill:#4a9eb0;fill-opacity:1"
     id="path3053"
     d="m 287.71823,31.761739 c -0.0515,-1.416771 -1.10766,-2.112277 -2.62747,-2.112277 -0.92734,0 -2.26683,0.386392 -2.26683,1.751645 0,1.313733 1.41677,1.545569 2.80778,1.828923 1.41677,0.283354 2.80778,0.643987 2.80778,2.266835 0,1.700125 -1.62284,2.318353 -2.88506,2.318353 -1.93196,0 -3.47753,-0.798544 -3.47753,-2.910822 h 0.51519 c -0.10304,1.803164 1.33949,2.472911 2.96234,2.472911 0.97886,0 2.39563,-0.437911 2.39563,-1.880442 0,-1.391013 -1.41677,-1.622848 -2.80778,-1.931962 -1.39101,-0.283354 -2.80778,-0.618227 -2.80778,-2.189556 0,-1.571328 1.46829,-2.189556 2.75626,-2.189556 1.72589,0 3.06538,0.747025 3.14266,2.550189 h -0.51519 z"
     inkscape:connector-curvature="0" />
  <path
     style="fill:#4a9eb0;fill-opacity:1"
     id="path3055"
     d="m 288.80013,31.710221 h 0.51519 l 2.18955,5.409491 2.035,-5.409491 h 0.48943 l -2.52443,6.542908 c -0.23183,0.566709 -0.43791,1.03038 -0.6955,1.210696 -0.30912,0.231835 -0.72127,0.257595 -1.39102,0.257595 v -0.386393 c 0.61823,0 0.92734,-0.07728 1.23646,-0.386392 0.18031,-0.180316 0.33487,-0.618227 0.61823,-1.391012 l -2.47291,-5.847402 z"
     inkscape:connector-curvature="0" />
  <path
     style="fill:#4a9eb0;fill-opacity:1"
     id="path3057"
     d="m 294.82784,35.651421 c 0.0773,1.081899 0.87583,1.725886 1.95773,1.725886 0.77278,0 1.88044,-0.231836 1.88044,-1.262215 0,-1.00462 -1.00462,-1.159177 -2.035,-1.365253 -1.03038,-0.206075 -2.035,-0.46367 -2.035,-1.674366 0,-1.184936 1.13342,-1.519809 2.13804,-1.519809 1.26221,0 2.18955,0.540949 2.18955,1.880442 h -0.43791 c 0,-1.081898 -0.74702,-1.51981 -1.75164,-1.51981 -0.79855,0 -1.70013,0.309114 -1.70013,1.133418 0,0.9531 1.00462,1.081898 1.95772,1.313733 1.18494,0.206076 2.08652,0.48943 2.08652,1.725886 0,1.287974 -1.28797,1.622847 -2.31835,1.622847 -1.3395,0 -2.36988,-0.721265 -2.39564,-2.112278 h 0.46367 z"
     inkscape:connector-curvature="0" />
  <path
     style="fill:#4a9eb0;fill-opacity:1"
     id="path3059"
     d="m 302.34961,32.096613 h -1.28797 v 4.121517 c 0,0.953101 0.43791,1.056139 1.28797,1.030379 v 0.386393 c -0.90158,0.05152 -1.75164,-0.07728 -1.72588,-1.416772 v -4.121517 h -1.0819 v -0.386392 h 1.0819 v -1.854683 h 0.43791 v 1.854683 h 1.28797 v 0.386392 z"
     inkscape:connector-curvature="0" />
  <path
     style="fill:#4a9eb0;fill-opacity:1"
     id="path3061"
     d="m 303.32847,34.72408 c -0.0258,1.391012 0.72127,2.653227 2.1638,2.653227 1.10766,0 1.9062,-0.669747 2.11228,-1.751645 h 0.43791 c -0.23184,1.391012 -1.15918,2.138037 -2.55019,2.138037 -1.72588,0 -2.62747,-1.365253 -2.60171,-2.9881 -0.0258,-1.622847 0.82431,-3.194176 2.60171,-3.194176 1.85468,0 2.67899,1.468291 2.60171,3.142657 h -4.76551 z m 4.3276,-0.386392 c -0.0258,-1.236455 -0.79855,-2.395632 -2.1638,-2.395632 -1.31373,0 -2.08652,1.210696 -2.1638,2.395632 h 4.3276 z"
     inkscape:connector-curvature="0" />
  <path
     style="fill:#4a9eb0;fill-opacity:1"
     id="path3063"
     d="m 309.12436,31.710221 h 0.43791 v 1.210695 h 0.0258 c 0.18031,-0.747025 0.97886,-1.339493 1.85468,-1.339493 1.13342,0 1.64861,0.643987 1.77741,1.262215 h 0.0258 c 0.33488,-0.798544 0.92735,-1.262215 1.88045,-1.262215 1.0819,0 1.85468,0.618228 1.85468,2.00924 v 4.044239 h -0.43791 v -4.069999 c 0,-1.519809 -1.0819,-1.622847 -1.41677,-1.622847 -1.0819,0 -1.85469,0.747025 -1.85469,2.163796 v 3.50329 h -0.43791 v -4.044239 c 0,-1.49405 -1.00462,-1.622847 -1.39101,-1.622847 -0.85006,0 -1.88044,0.643987 -1.88044,2.163796 v 3.50329 h -0.43791 v -5.898921 z"
     inkscape:connector-curvature="0" />
  <path
     style="fill:#4a9eb0;fill-opacity:1"
     id="path3065"
     d="m 318.50081,35.651421 c 0.0773,1.081899 0.87582,1.725886 1.95772,1.725886 0.77278,0 1.88044,-0.231836 1.88044,-1.262215 0,-1.00462 -1.00462,-1.159177 -2.035,-1.365253 -1.03038,-0.206075 -2.035,-0.46367 -2.035,-1.674366 0,-1.184936 1.13342,-1.519809 2.13804,-1.519809 1.26222,0 2.18956,0.540949 2.18956,1.880442 h -0.43791 c 0,-1.081898 -0.74703,-1.51981 -1.75165,-1.51981 -0.79854,0 -1.70012,0.309114 -1.70012,1.133418 0,0.9531 1.00462,1.081898 1.95772,1.313733 1.18493,0.206076 2.08651,0.48943 2.08651,1.725886 0,1.287974 -1.28797,1.622847 -2.31835,1.622847 -1.33949,0 -2.36987,-0.721265 -2.39563,-2.112278 h 0.46367 z"
     inkscape:connector-curvature="0" />
  <path
     style="fill:#4a9eb0;fill-opacity:1"
     id="path3067"
     d="m 286.8424,48.634201 c -0.51518,0.850063 -1.33949,1.365252 -2.34411,1.365252 -1.36525,0 -2.44715,-0.695506 -2.44715,-2.086518 0,-1.339493 1.18494,-1.98348 2.13804,-2.575948 -0.51519,-0.643987 -1.10766,-1.262215 -1.10766,-2.138037 0,-0.850063 0.87582,-1.416772 1.72589,-1.416772 0.90158,0 1.72588,0.489431 1.72588,1.416772 0,1.184936 -0.90158,1.648607 -1.70012,2.241075 l 1.95772,2.395632 c 0.15455,-0.437911 0.28335,-0.901582 0.28335,-1.365253 h 0.43791 c -0.0258,0.592468 -0.18031,1.210696 -0.41215,1.725886 l 1.33949,1.648607 h -0.59247 l -1.00462,-1.210696 z m -2.39563,-2.9881 c -0.85006,0.540949 -1.93196,1.081898 -1.93196,2.266834 0,1.081899 1.00462,1.725886 2.00924,1.725886 1.39101,0 2.06076,-1.262215 2.06076,-1.339493 l -2.13804,-2.653227 z m 1.64861,-2.447151 c 0,-0.618228 -0.64399,-1.030379 -1.28797,-1.030379 -0.64399,0 -1.28798,0.412151 -1.28798,1.030379 0,0.798544 0.69551,1.365253 1.05614,1.931961 0.66975,-0.463671 1.51981,-1.00462 1.51981,-1.931961 z"
     inkscape:connector-curvature="0" />
  <path
     style="fill:#4a9eb0;fill-opacity:1"
     id="path3069"
     d="m 292.32917,41.627621 h 2.70475 c 2.93658,0 3.78664,2.00924 3.78664,4.095758 0,2.318354 -1.18493,4.121518 -3.8124,4.121518 h -2.67899 v -8.217276 z m 0.48943,7.805124 h 2.21532 c 1.51981,0 3.27145,-0.850063 3.27145,-3.683606 0,-3.374493 -2.16379,-3.657847 -3.37449,-3.657847 h -2.11228 v 7.341453 z"
     inkscape:connector-curvature="0" />
  <path
     style="fill:#4a9eb0;fill-opacity:1"
     id="path3071"
     d="m 300.08278,46.959834 c -0.0258,1.391013 0.72126,2.653227 2.1638,2.653227 1.10765,0 1.9062,-0.669746 2.11227,-1.751645 h 0.43791 c -0.23183,1.391012 -1.15917,2.138037 -2.55018,2.138037 -1.72589,0 -2.62747,-1.365252 -2.60171,-2.9881 -0.0258,-1.622847 0.8243,-3.194175 2.60171,-3.194175 1.85468,0 2.67898,1.46829 2.6017,3.142656 h -4.7655 z m 4.35335,-0.386392 c -0.0258,-1.236455 -0.79854,-2.395632 -2.16379,-2.395632 -1.31374,0 -2.08652,1.210696 -2.1638,2.395632 h 4.32759 z"
     inkscape:connector-curvature="0" />
  <path
     style="fill:#4a9eb0;fill-opacity:1"
     id="path3073"
     d="m 308.1455,49.870656 h -0.54095 l -2.39563,-5.924681 h 0.51519 l 2.13803,5.409491 h 0.0258 l 2.00924,-5.409491 h 0.48943 l -2.24107,5.924681 z"
     inkscape:connector-curvature="0" />
  <path
     style="fill:#4a9eb0;fill-opacity:1"
     id="path3075"
     d="m 311.10784,42.812558 v -1.184937 h 0.43791 v 1.184937 h -0.43791 z m 0,7.058098 v -5.924681 h 0.43791 v 5.924681 h -0.43791 z"
     inkscape:connector-curvature="0" />
  <path
     style="fill:#4a9eb0;fill-opacity:1"
     id="path3077"
     d="m 317.39315,45.774898 c -0.0773,-1.056139 -0.92734,-1.597088 -2.00924,-1.597088 -1.49405,0 -2.26683,1.313734 -2.26683,2.653227 0,1.597088 0.74702,2.782024 2.26683,2.782024 1.10766,0 1.9062,-0.772784 2.06076,-1.854683 h 0.43791 c -0.20607,1.416772 -1.21069,2.215316 -2.49867,2.215316 -1.93196,0 -2.70474,-1.51981 -2.70474,-3.142657 0,-1.648607 0.97886,-3.039619 2.70474,-3.039619 1.28798,0 2.31836,0.618228 2.44715,1.957721 h -0.43791 z"
     inkscape:connector-curvature="0" />
  <path
     style="fill:#4a9eb0;fill-opacity:1"
     id="path3079"
     d="m 319.09328,46.959834 c -0.0258,1.391013 0.72126,2.653227 2.16379,2.653227 1.10766,0 1.90621,-0.669746 2.11228,-1.751645 h 0.43791 c -0.23183,1.391012 -1.15917,2.138037 -2.55019,2.138037 -1.72588,0 -2.62746,-1.365252 -2.6017,-2.9881 -0.0258,-1.622847 0.8243,-3.194175 2.6017,-3.194175 1.85469,0 2.67899,1.46829 2.60171,3.142656 h -4.7655 z m 4.35335,-0.386392 c -0.0258,-1.236455 -0.79854,-2.395632 -2.1638,-2.395632 -1.31373,0 -2.08651,1.210696 -2.16379,2.395632 h 4.32759 z"
     inkscape:connector-curvature="0" />
  <path
     style="fill:#4a9eb0;fill-opacity:1"
     id="path3081"
     d="m 325.09524,47.887176 c 0.0773,1.081898 0.87582,1.725885 1.95772,1.725885 0.77278,0 1.88044,-0.231835 1.88044,-1.262214 0,-1.00462 -1.00462,-1.159177 -2.035,-1.365253 -1.03038,-0.206076 -2.035,-0.463671 -2.035,-1.674366 0,-1.184937 1.13342,-1.51981 2.13804,-1.51981 1.26221,0 2.18955,0.540949 2.18955,1.880442 h -0.43791 c 0,-1.081898 -0.74702,-1.519809 -1.75164,-1.519809 -0.79855,0 -1.70013,0.309114 -1.70013,1.133417 0,0.953101 1.00462,1.081898 1.95772,1.313734 1.18494,0.206076 2.08652,0.48943 2.08652,1.725885 0,1.287974 -1.28797,1.622847 -2.31835,1.622847 -1.33949,0 -2.36987,-0.721265 -2.39563,-2.112277 h 0.46367 z"
     inkscape:connector-curvature="0" />
  <g
     id="g3083"
     transform="matrix(0.25759483,0,0,0.25759483,231.2792,11.257191)"
     style="fill:#4a9eb0;fill-opacity:1">
	<path
   inkscape:connector-curvature="0"
   d="m 77.9,134 v 15.9 c 23.9,0 42.5,-28.1 42.5,-64 H 104.3 C 104.4,111.5 92,134 77.9,134 z"
   id="path3085"
   style="fill:#4a9eb0;fill-opacity:1" />

	<path
   inkscape:connector-curvature="0"
   d="M 96.7,37.8 V 22 C 72.8,22 54.2,50.1 54.2,86 H 70.3 C 70.2,60.3 82.6,37.8 96.7,37.8 z"
   id="path3087"
   style="fill:#4a9eb0;fill-opacity:1" />

</g>
  <g
     id="g3089"
     transform="matrix(0.25759483,0,0,0.25759483,231.2792,11.257191)"
     style="fill:#4a9eb0;fill-opacity:1">
	<path
   inkscape:connector-curvature="0"
   d="m 145.9,85.9 c 0,-24.8 -7.3,-47.4 -19.2,-64 H 106 c 14.3,13.6 23.8,37.2 23.8,64 0,26.8 -9.5,50.4 -23.8,64 h 20.7 c 11.9,-16.6 19.2,-39.1 19.2,-64 z"
   id="path3091"
   style="fill:#4a9eb0;fill-opacity:1" />

	<path
   inkscape:connector-curvature="0"
   d="m 171.3,85.9 c 0,-32.3 -10,-61.6 -26.2,-83.2 h -20.8 c 18.7,19 30.9,49.2 30.9,83.2 0,24.1 -6.1,46.3 -16.4,64 h 18 c 9.2,-18.6 14.5,-40.5 14.5,-64 z"
   id="path3093"
   style="fill:#4a9eb0;fill-opacity:1" />

	<g
   id="g3095"
   style="fill:#4a9eb0;fill-opacity:1">
		<path
   inkscape:connector-curvature="0"
   d="m 19.4,85.9 c 0,-24.1 6.1,-46.3 16.4,-64 h -18 C 8.6,40.5 3.3,62.4 3.3,85.9 c 0,23.5 5.3,45.4 14.4,64 h 18 C 25.5,132.2 19.4,110 19.4,85.9 z"
   id="path3097"
   style="fill:#4a9eb0;fill-opacity:1" />

	</g>

</g>
  <g
     id="g3099"
     transform="matrix(0.25759483,0,0,0.25759483,231.2792,11.257191)"
     style="fill:#4a9eb0;fill-opacity:1">
	<path
   inkscape:connector-curvature="0"
   d="m 44.8,85.9 c 0,-26.8 9.5,-50.4 23.8,-64 H 47.9 C 36,38.5 28.7,61 28.7,85.9 c 0,41.9 20.8,77.3 49.2,88.4 V 156.8 C 58.6,145.8 44.8,118.2 44.8,85.9 z"
   id="path3101"
   style="fill:#4a9eb0;fill-opacity:1" />

</g>
</svg>
